<?xml version="1.0" standalone="no"?>
<!DOCTYPE svg PUBLIC "-//W3C//DTD SVG 20010904//EN"
 "http://www.w3.org/TR/2001/REC-SVG-20010904/DTD/svg10.dtd">
<svg version="1.0" xmlns="http://www.w3.org/2000/svg"
 width="600.000000pt" height="600.000000pt" viewBox="0 0 600.000000 600.000000"
 preserveAspectRatio="xMidYMid meet">
<metadata>
Created by potrace 1.11, written by Peter Selinger 2001-2013
</metadata>
<g transform="translate(0.000000,600.000000) scale(0.100000,-0.100000)"
fill="#000000" stroke="none">
<path d="M0 3000 l0 -3000 3000 0 3000 0 0 3000 0 3000 -3000 0 -3000 0 0
-3000z m3360 1130 l5 -425 27 -67 c53 -132 92 -337 101 -526 l2 -54 175 184
c96 101 418 438 715 751 l539 567 183 0 c101 0 183 -2 183 -5 0 -6 -1088
-1156 -1103 -1166 -5 -4 -6 -13 -1 -20 10 -17 666 -1016 932 -1419 107 -162
210 -319 229 -348 l34 -52 -179 0 -178 0 -209 317 c-440 668 -837 1268 -844
1276 -11 11 -581 -594 -598 -634 -10 -24 -13 -131 -13 -493 0 -255 -2 -465 -4
-467 -2 -2 -63 -3 -135 -1 l-131 3 0 250 c0 137 -3 249 -6 249 -4 0 -44 -35
-89 -78 -222 -214 -518 -356 -839 -402 -122 -18 -365 -16 -473 4 -343 62 -638
222 -872 472 -64 69 -165 202 -204 270 -4 7 55 47 156 104 89 52 164 95 166
97 2 1 -14 42 -36 90 -149 321 -146 684 7 999 84 173 234 348 388 453 339 230
783 265 1151 91 68 -33 82 -43 76 -58 -4 -12 -164 -296 -180 -319 0 -1 -37 13
-81 32 -477 204 -1003 -95 -1075 -612 -18 -130 6 -283 66 -419 14 -31 23 -60
20 -64 -3 -4 -74 -47 -160 -96 -85 -49 -155 -94 -155 -100 0 -24 107 -163 184
-239 410 -402 1053 -445 1507 -101 293 222 459 559 459 930 0 178 -43 364
-120 517 -17 33 -30 62 -28 63 2 2 76 44 165 96 153 87 162 94 151 114 -20 38
-70 110 -125 178 l-53 67 0 211 0 211 133 -3 132 -3 5 -425z"/>
</g>
</svg>
