<?xml version="1.0" encoding="utf-8"?>
<!-- Generator: Adobe Illustrator 13.0.0, SVG Export Plug-In . SVG Version: 6.00 Build 14948)  -->
<!DOCTYPE svg PUBLIC "-//W3C//DTD SVG 1.1//EN" "http://www.w3.org/Graphics/SVG/1.1/DTD/svg11.dtd">
<svg version="1.1" id="Capa_1" xmlns="http://www.w3.org/2000/svg" xmlns:xlink="http://www.w3.org/1999/xlink" x="0px" y="0px"
	 width="100px" height="100px" viewBox="0 0 100 100" enable-background="new 0 0 100 100" xml:space="preserve">
<g>
	<circle fill="#2AAD2D" cx="49.5" cy="49.5" r="47.5"/>
	<g>
		<path fill="#FFFFFF" d="M35.409,70.095L22.399,57.086l-0.002-0.002l0.002,0.002c-2.539-2.539-2.539-6.655-0.002-9.194l0,0
			c2.539-2.538,6.655-2.538,9.194,0l0,0l8.414,8.415l27.404-27.402c2.539-2.539,6.653-2.539,9.192,0l0,0
			c2.538,2.539,2.538,6.653,0,9.192l0,0L44.603,70.095c-1.211,1.211-2.885,1.904-4.597,1.904l0,0
			C38.293,71.999,36.619,71.306,35.409,70.095L35.409,70.095z"/>
	</g>
</g>
</svg>
