<?xml version="1.0" encoding="utf-8"?>
<!-- Generator: Adobe Illustrator 13.0.0, SVG Export Plug-In . SVG Version: 6.00 Build 14948)  -->
<!DOCTYPE svg PUBLIC "-//W3C//DTD SVG 1.1//EN" "http://www.w3.org/Graphics/SVG/1.1/DTD/svg11.dtd">
<svg version="1.1" id="Capa_1" xmlns="http://www.w3.org/2000/svg" xmlns:xlink="http://www.w3.org/1999/xlink" x="0px" y="0px"
	 width="500px" height="500px" viewBox="0 0 500 500" enable-background="new 0 0 500 500" xml:space="preserve">
<g>
	<g>
		<path fill="#FFFFFF" d="M250.063,0h-0.125C112.094,0,0,112.125,0,250c0,54.688,17.625,105.375,47.594,146.531l-31.156,92.875
			l96.094-30.719C152.063,484.875,199.219,500,250.063,500C387.906,500,500,387.844,500,250S387.906,0,250.063,0z M395.531,353.031
			c-6.031,17.031-29.969,31.156-49.063,35.281c-13.063,2.781-30.125,5-87.563-18.813
			c-73.469-30.438-120.781-105.094-124.469-109.938c-3.531-4.844-29.688-39.531-29.688-75.406s18.219-53.344,25.563-60.844
			c6.031-6.156,16-8.969,25.563-8.969c3.094,0,5.875,0.156,8.375,0.281c7.344,0.313,11.031,0.75,15.875,12.344
			c6.031,14.531,20.719,50.406,22.469,54.094c1.781,3.688,3.563,8.688,1.063,13.531c-2.344,5-4.406,7.219-8.094,11.469
			s-7.188,7.5-10.875,12.063c-3.375,3.969-7.188,8.219-2.938,15.563c4.25,7.188,18.938,31.156,40.563,50.406
			c27.906,24.844,50.531,32.781,58.625,36.156c6.031,2.5,13.219,1.906,17.625-2.781c5.594-6.031,12.5-16.031,19.531-25.875
			c5-7.063,11.313-7.938,17.938-5.438c6.75,2.344,42.469,20,49.813,23.656c7.344,3.688,12.188,5.438,13.969,8.531
			C401.563,321.438,401.563,335.969,395.531,353.031z"/>
	</g>
</g>
</svg>
