<?xml version="1.0" encoding="utf-8"?>
<!-- Generator: Adobe Illustrator 13.0.0, SVG Export Plug-In . SVG Version: 6.00 Build 14948)  -->
<!DOCTYPE svg PUBLIC "-//W3C//DTD SVG 1.1//EN" "http://www.w3.org/Graphics/SVG/1.1/DTD/svg11.dtd">
<svg version="1.1" id="Capa_1" xmlns="http://www.w3.org/2000/svg" xmlns:xlink="http://www.w3.org/1999/xlink" x="0px" y="0px"
	 width="800px" height="120px" viewBox="0 0 800 120" enable-background="new 0 0 800 120" xml:space="preserve">
<g>
	<g>
		<path fill="#FFFFFF" stroke="#FFFFFF" d="M620.447,30.332h-3.492l-18.189,41.657h34.637l9.408,21.529h5.135L620.447,30.332z
			 M605.906,67.289l12.785-29.239l12.646,29.239H605.906z"/>
		<polygon fill="#FFFFFF" stroke="#FFFFFF" points="51.131,35.027 51.131,30.416 9.391,30.416 9.391,93.518 51.893,93.518 
			51.893,90.324 51.895,90.324 51.895,90.322 51.895,88.822 14.087,88.822 14.087,63.594 46.555,63.594 46.555,58.896 
			14.087,58.896 14.087,35.027 		"/>
		<polygon fill="#FFFFFF" stroke="#FFFFFF" points="118.807,30.416 96.371,58.584 73.934,30.416 67.895,30.416 93.35,62.35 
			68.506,93.519 74.545,93.519 96.371,66.113 118.194,93.519 124.153,93.519 99.307,62.35 124.762,30.416 		"/>
		<path fill="#FFFFFF" stroke="#FFFFFF" d="M487.748,62.008c-0.002-0.006-0.002-0.012-0.002-0.018l0,0
			c0.004-8.098,2.959-15.949,8.041-21.827l0,0c5.074-5.875,12.352-9.78,20.84-9.776l0,0l0,0c12.912-0.066,20.375,5.861,24.313,13.79
			l0,0l0.789,1.553l-4.471,1.39l-0.588-1.076c-4.357-7.872-11.068-10.968-20.041-11.02l0,0c-7.451,0.008-13.412,3.362-17.629,8.439
			l0,0c-4.203,5.074-6.563,11.883-6.559,18.529l0,0c-0.004,7.056,2.82,13.834,7.4,18.816l0,0c4.58,4.985,10.857,8.154,17.803,8.154
			l0,0c3.326,0.01,7.943-1.279,11.924-3.43l0,0c4.004-2.133,7.336-5.145,8.457-8.162l0,0l0.475-1.252l4.514,1.173l-0.564,1.526
			c-3.684,9.599-15.797,14.715-24.805,14.779l0,0C499.926,93.533,487.766,77.357,487.748,62.008L487.748,62.008z"/>
		<rect x="568.695" y="30.416" fill="#FFFFFF" stroke="#FFFFFF" width="4.697" height="63.102"/>
		<rect x="327.563" y="30.416" fill="#FFFFFF" stroke="#FFFFFF" width="4.697" height="63.102"/>
		<path fill="#FFFFFF" stroke="#FFFFFF" d="M166.508,69.866h-22.98v-4.695h22.98c4.099-0.011,7.296-1.856,9.597-4.695l0,0
			c2.287-2.835,3.573-6.685,3.569-10.417l0,0c0.002-3.883-1.551-7.683-4.066-10.473l0,0c-2.52-2.797-5.938-4.561-9.693-4.559l0,0
			h-22.387V30.33h22.387c10.848,0.068,18.438,10.012,18.455,19.729l0,0c-0.004,5.055-1.766,9.956-4.879,13.65l0,0
			c-3.1,3.685-7.625,6.157-12.956,6.157l0,0C166.526,69.866,166.516,69.866,166.508,69.866L166.508,69.866z"/>
		<path fill="#FFFFFF" stroke="#FFFFFF" d="M296.969,93.518l-15.258-23.65h-20.365v-4.695h22.2c4.063-0.011,7.263-1.82,9.571-4.638
			l0,0c2.294-2.815,3.599-6.657,3.595-10.476l0,0c0.004-3.885-1.552-7.682-4.066-10.475l0,0c-2.52-2.795-5.937-4.557-9.692-4.557
			l0,0h-21.607v-4.611h21.607c10.85-0.018,18.438,9.926,18.453,19.643l0,0c0.016,9.137-5.664,17.528-14.323,19.447l0,0
			l15.493,24.012H296.969z"/>
		<path fill="#FFFFFF" stroke="#FFFFFF" d="M462.74,30.416v54.857L419,30.417V38l44.264,55.518h4.172V30.416H462.74z"/>
		<g>
			<rect x="360.041" y="88.822" fill="#FFFFFF" stroke="#FFFFFF" width="37.125" height="4.695"/>
			<rect x="360.043" y="58.896" fill="#FFFFFF" stroke="#FFFFFF" width="31.781" height="4.696"/>
			<rect x="360.041" y="30.416" fill="#FFFFFF" stroke="#FFFFFF" width="36.36" height="4.611"/>
		</g>
		<g>
			<rect x="204.676" y="88.822" fill="#FFFFFF" stroke="#FFFFFF" width="37.124" height="4.695"/>
			<rect x="204.677" y="58.896" fill="#FFFFFF" stroke="#FFFFFF" width="31.781" height="4.696"/>
			<rect x="204.676" y="30.416" fill="#FFFFFF" stroke="#FFFFFF" width="36.358" height="4.611"/>
		</g>
	</g>
	<g>
		<path fill="#FFFFFF" stroke="#FFFFFF" stroke-width="0.3" d="M743.115,29.715v26.826c0.324,1.778,0.494,3.619,0.494,5.507
			s-0.17,3.729-0.494,5.507v26.66h5.471v-64.5H743.115z"/>
		<polyline fill="#FFFFFF" stroke="#FFFFFF" stroke-width="0.3" points="748.586,65.397 782.535,29.715 790.121,29.715 
			747.787,74.381 		"/>
		<polygon fill="#FFFFFF" stroke="#FFFFFF" stroke-width="0.3" points="792.086,94.215 766.221,54.932 761.914,59.495 
			784.834,94.215 		"/>
		<g>
			<g>
				<g id="XMLID_99_">
					<g>
						<path fill="#FFA300" d="M751.616,60.924h-8.321c0-4.548-1.215-8.811-3.342-12.483l7.209-4.161l0.006-0.003
							C749.997,49.173,751.616,54.858,751.616,60.924z"/>
						<path fill="#FFE600" d="M743.295,60.924h8.321c0,6.069-1.619,11.754-4.448,16.65l-0.006-0.003l-7.209-4.161
							C742.08,69.735,743.295,65.472,743.295,60.924z"/>
						<path fill="#E30000" d="M747.168,44.277l-0.006,0.003l-7.209,4.161c-2.19-3.792-5.35-6.951-9.139-9.144l4.161-7.206
							l0.003-0.006C740.033,35.007,744.249,39.222,747.168,44.277z"/>
						<path fill="#00C400" d="M747.162,77.571l0.006,0.003c-2.922,5.055-7.135,9.27-12.189,12.191l-0.003-0.006l-4.161-7.206
							c3.789-2.192,6.948-5.352,9.139-9.144L747.162,77.571z"/>
						<path fill="#00ADFF" d="M734.976,89.76l0.003,0.006c-4.896,2.829-10.581,4.449-16.646,4.449v-8.322
							c4.548,0,8.811-1.215,12.482-3.339L734.976,89.76z"/>
						<path fill="#FFFFFF" d="M730.814,39.297l-4.161,7.209c-2.447-1.416-5.289-2.226-8.321-2.226v-8.322
							C722.88,35.958,727.143,37.173,730.814,39.297z"/>
						<path fill="#FFFFFF" d="M718.332,85.893v8.322c-6.069,0-11.754-1.62-16.65-4.449l0.003-0.006l4.161-7.209
							C709.518,84.678,713.78,85.893,718.332,85.893z"/>
						<path fill="#FFFFFF" d="M718.332,35.958v8.322c-3.036,0-5.877,0.81-8.325,2.226l-4.161-7.206
							C709.518,37.173,713.78,35.958,718.332,35.958z"/>
						<path fill="#FFFFFF" d="M705.846,39.3l4.161,7.206c-2.529,1.461-4.635,3.567-6.097,6.096l-7.205-4.161
							C698.895,44.652,702.054,41.49,705.846,39.3z"/>
						<path fill="#FFFFFF" d="M705.846,82.551l-4.161,7.209l-0.003,0.006c-5.055-2.922-9.27-7.137-12.192-12.191l0.007-0.003
							l7.209-4.161C698.895,77.199,702.054,80.361,705.846,82.551z"/>
						<path fill="#FFFFFF" d="M696.705,48.441l7.205,4.161c-1.415,2.448-2.226,5.289-2.226,8.322h-8.322
							C693.362,56.376,694.578,52.113,696.705,48.441z"/>
						<path fill="#FFFFFF" d="M703.91,69.249l-7.205,4.161c-2.127-3.675-3.343-7.938-3.343-12.486h8.322
							C701.685,63.957,702.495,66.801,703.91,69.249z"/>
					</g>
					<g>
					</g>
				</g>
			</g>
		</g>
	</g>
</g>
</svg>
