<?xml version="1.0" encoding="utf-8"?>
<!-- Generator: Adobe Illustrator 13.0.0, SVG Export Plug-In . SVG Version: 6.00 Build 14948)  -->
<!DOCTYPE svg PUBLIC "-//W3C//DTD SVG 1.1//EN" "http://www.w3.org/Graphics/SVG/1.1/DTD/svg11.dtd">
<svg version="1.1" id="Capa_1" xmlns="http://www.w3.org/2000/svg" xmlns:xlink="http://www.w3.org/1999/xlink" x="0px" y="0px"
	 width="800px" height="600px" viewBox="0 0 800 600" enable-background="new 0 0 800 600" xml:space="preserve">
<g>
	<path fill="#FFFFFF" stroke="#FFFFFF" stroke-width="1.9567" d="M415.684,90.449v174.965c2.115,11.599,3.225,23.605,3.225,35.917
		c0,12.313-1.108,24.317-3.225,35.91v173.891h35.688V90.449H415.684z"/>
	<polyline fill="#FFFFFF" stroke="#FFFFFF" stroke-width="1.9567" points="451.372,323.178 672.789,90.449 722.267,90.449 
		446.154,381.77 	"/>
	<polygon fill="#FFFFFF" stroke="#FFFFFF" stroke-width="1.9567" points="735.087,511.132 566.383,254.917 538.295,284.682 
		687.783,511.132 	"/>
	<g>
		<g>
			<g id="XMLID_1_">
				<g>
					<path fill="#FFFFFF" d="M308.328,199.948c-15.966-9.216-34.496-14.499-54.278-14.499v-54.297
						c29.663,0,57.467,7.924,81.417,21.777L308.328,199.948z"/>
					<path fill="#FFE600" d="M416.884,293.985h54.277c0,39.583-10.565,76.682-29.037,108.615l-0.021-0.02l-47.019-27.159
						C408.959,351.473,416.884,323.648,416.884,293.985z"/>
					<path fill="#00C400" d="M395.086,375.421l47.02,27.159l0.02,0.02c-19.058,32.971-46.529,60.461-79.499,79.499l-0.02-0.039
						l-27.14-46.999C360.199,420.757,380.803,400.152,395.086,375.421z"/>
					<path fill="#FFFFFF" d="M145.475,293.985H91.197c0-29.663,7.924-57.467,21.797-81.417l46.979,27.139
						C150.758,255.654,145.475,274.203,145.475,293.985z"/>
					<path fill="#00ADFF" d="M362.625,482.099c-31.933,18.472-69.012,29.018-108.575,29.018v-54.277
						c29.663,0,57.467-7.925,81.417-21.777l27.14,46.999L362.625,482.099z"/>
					<path fill="#E30000" d="M442.104,185.449l-46.998,27.139c-14.283-24.732-34.906-45.355-59.64-59.659l27.14-46.999l0.02-0.039
						c32.969,19.058,60.46,46.549,79.539,79.519L442.104,185.449z"/>
					<path fill="#FFFFFF" d="M91.197,293.985h54.278c0,19.783,5.283,38.351,14.519,54.317l-46.999,27.119
						C99.122,351.452,91.197,323.648,91.197,293.985z"/>
					<path fill="#FFFFFF" d="M254.05,131.152v54.297c-19.782,0-38.331,5.283-54.297,14.499l-27.139-47.019
						C196.563,139.076,224.387,131.152,254.05,131.152z"/>
					<path fill="#FFFFFF" d="M254.05,456.838v54.277c-39.583,0-76.662-10.565-108.595-29.018l0.02-0.039l27.139-46.999
						C196.563,448.913,224.387,456.838,254.05,456.838z"/>
					<path fill="#FFFFFF" d="M65.976,402.58l47.019-27.159c14.284,24.731,34.907,45.336,59.619,59.64l-27.139,46.999l-0.02,0.039
						c-32.97-19.059-60.441-46.528-79.499-79.499L65.976,402.58z"/>
					<path fill="#FFFFFF" d="M159.974,239.707l-46.979-27.139c14.284-24.732,34.907-45.336,59.619-59.639l27.139,47.019
						C183.258,209.477,169.522,223.212,159.974,239.707z"/>
					<path fill="#FFA300" d="M442.164,185.41c18.451,31.933,28.997,69.012,28.997,108.575h-54.277
						c0-29.643-7.925-57.447-21.777-81.397l46.999-27.139L442.164,185.41z"/>
				</g>
			</g>
		</g>
	</g>
</g>
</svg>
