<?xml version="1.0" encoding="utf-8"?>
<!-- Generator: Adobe Illustrator 13.0.0, SVG Export Plug-In . SVG Version: 6.00 Build 14948)  -->
<!DOCTYPE svg PUBLIC "-//W3C//DTD SVG 1.1//EN" "http://www.w3.org/Graphics/SVG/1.1/DTD/svg11.dtd">
<svg version="1.1" id="Capa_1" xmlns="http://www.w3.org/2000/svg" xmlns:xlink="http://www.w3.org/1999/xlink" x="0px" y="0px"
	 width="500px" height="500px" viewBox="0 0 500 500" enable-background="new 0 0 500 500" xml:space="preserve">
<path fill="#FFFFFF" d="M384.805,301.769l-5.246-0.521c-9.506,0-18.518,1.948-26.933,5.065L192.719,146.38
	c3.116-8.414,5.064-17.426,5.064-26.933l-0.52-5.245c-2.753-40.542-36.152-72.669-77.395-72.669c-12,0-23.245,2.935-33.399,7.791
	l51.761,51.762c2.727,2.727,4.597,5.946,5.844,9.35c3.401,9.194,1.559,19.946-5.844,27.374c-5.065,5.063-11.713,7.609-18.361,7.609
	c-3.064,0-6.104-0.675-9.014-1.766c-3.4-1.298-6.622-3.116-9.349-5.869L49.747,86.049c-4.857,10.154-7.792,21.399-7.792,33.398
	c0,41.242,32.127,74.643,72.669,77.396l5.247,0.52c9.505,0,18.518-1.948,26.933-5.038l159.879,159.907
	c-3.064,8.415-5.012,17.427-5.012,26.933l0.545,5.246c2.701,40.568,36.126,72.669,77.368,72.669c12,0,23.271-2.883,33.4-7.792
	l-51.761-51.761c-2.701-2.702-4.598-5.947-5.896-9.323c-3.402-9.193-1.559-19.973,5.896-27.4c5.012-5.064,11.713-7.609,18.36-7.609
	c3.065,0,6.078,0.649,9.038,1.766c3.402,1.272,6.649,3.091,9.324,5.844l51.761,51.762c4.883-10.181,7.792-21.4,7.792-33.399
	C457.473,337.921,425.347,304.521,384.805,301.769z"/>
</svg>
