<?xml version="1.0" encoding="utf-8"?>
<!-- Generator: Adobe Illustrator 13.0.0, SVG Export Plug-In . SVG Version: 6.00 Build 14948)  -->
<!DOCTYPE svg PUBLIC "-//W3C//DTD SVG 1.1//EN" "http://www.w3.org/Graphics/SVG/1.1/DTD/svg11.dtd">
<svg version="1.1" id="Capa_1" xmlns="http://www.w3.org/2000/svg" xmlns:xlink="http://www.w3.org/1999/xlink" x="0px" y="0px"
	 width="500px" height="500px" viewBox="0 0 500 500" enable-background="new 0 0 500 500" xml:space="preserve">
<g>
	<path fill="#FFFFFF" d="M63.289,192.218c2.252,7.726,5.38,15.177,9.335,22.167l-11.268,14.211
		c-3.679,4.645-3.265,11.268,0.874,15.454l19.409,19.409c4.186,4.186,10.807,4.553,15.454,0.874l14.119-11.178
		c7.266,4.187,14.992,7.451,23.041,9.751l2.116,18.167c0.689,5.886,5.656,10.3,11.543,10.3h27.457c5.887,0,10.854-4.414,11.543-10.3
		l2.023-17.524c8.648-2.251,16.926-5.609,24.697-9.979l13.66,10.809c4.645,3.68,11.269,3.266,15.453-0.873l19.407-19.41
		c4.186-4.185,4.554-10.807,0.873-15.453l-10.622-13.475c4.413-7.634,7.862-15.775,10.164-24.283l16.372-1.886
		c5.887-0.689,10.303-5.656,10.303-11.543v-27.457c0-5.887-4.416-10.854-10.303-11.543l-16.144-1.887
		c-2.207-8.416-5.519-16.465-9.749-24.007l9.935-12.556c3.68-4.645,3.266-11.267-0.874-15.452L242.746,65.19
		c-4.186-4.185-10.809-4.553-15.454-0.873l-12.188,9.657c-7.91-4.645-16.374-8.187-25.249-10.578l-1.839-15.774
		c-0.691-5.887-5.659-10.302-11.544-10.302h-27.457c-5.887,0-10.853,4.415-11.543,10.302l-1.839,15.774
		c-9.107,2.438-17.799,6.117-25.893,10.946L97.092,64.317c-4.645-3.68-11.268-3.267-15.454,0.873L62.231,84.599
		c-4.186,4.186-4.552,10.808-0.874,15.453l10.578,13.383c-4.232,7.635-7.451,15.775-9.567,24.237l-16.924,1.932
		c-5.887,0.69-10.301,5.657-10.301,11.543v27.457c0,5.887,4.414,10.854,10.301,11.544L63.289,192.218z M162.765,117.942
		c25.021,0,45.394,20.374,45.394,45.393c0,25.019-20.373,45.393-45.394,45.393c-25.017,0-45.392-20.374-45.392-45.393
		S137.747,117.942,162.765,117.942z"/>
	<path fill="#FFFFFF" d="M434.203,198.978l-14.488-12.233c-4.461-3.772-11.037-3.588-15.27,0.414l-8.001,7.497
		c-6.761-3.265-13.936-5.564-21.341-6.898l-2.253-11.038c-1.148-5.704-6.438-9.658-12.232-9.198l-18.903,1.609
		c-5.794,0.506-10.348,5.244-10.53,11.084l-0.367,11.222c-7.268,2.622-14.121,6.208-20.377,10.716l-9.565-6.347
		c-4.874-3.22-11.36-2.299-15.131,2.162l-12.233,14.578c-3.771,4.461-3.587,11.039,0.413,15.269l8.372,8.922
		c-2.898,6.53-4.969,13.384-6.164,20.421l-11.957,2.436c-5.703,1.15-9.658,6.439-9.198,12.235l1.609,18.902
		c0.506,5.795,5.243,10.348,11.085,10.531l12.924,0.413c2.346,6.164,5.427,12.005,9.15,17.477l-7.218,10.9
		c-3.22,4.875-2.301,11.359,2.159,15.13l14.487,12.234c4.461,3.771,11.038,3.588,15.27-0.414l9.474-8.876
		c6.208,2.897,12.738,5.059,19.455,6.347l2.62,12.97c1.149,5.703,6.438,9.657,12.234,9.197l18.901-1.61
		c5.795-0.506,10.348-5.24,10.532-11.082l0.414-12.696c6.899-2.435,13.428-5.746,19.453-9.84l10.441,6.898
		c4.875,3.22,11.358,2.3,15.131-2.161l12.233-14.486c3.77-4.462,3.587-11.038-0.414-15.271l-8.417-8.921
		c3.081-6.531,5.336-13.429,6.623-20.513l11.496-2.347c5.703-1.147,9.659-6.438,9.199-12.233l-1.61-18.9
		c-0.506-5.795-5.242-10.349-11.083-10.533l-11.544-0.368c-2.392-6.716-5.612-13.063-9.612-18.95l6.301-9.474
		C439.583,209.28,438.663,202.749,434.203,198.978z M362.962,308.252c-20.418,1.748-38.446-13.475-40.148-33.895
		c-1.748-20.42,13.476-38.45,33.896-40.151c20.418-1.748,38.447,13.477,40.149,33.895
		C398.606,288.523,383.382,306.551,362.962,308.252z"/>
	<path fill="#FFFFFF" d="M129.422,359.118c-5.794,0.599-10.255,5.473-10.3,11.313l-0.139,11.635
		c-0.091,5.842,4.23,10.809,10.026,11.544l8.556,1.103c1.424,5.198,3.449,10.166,6.069,14.857l-5.519,6.807
		c-3.679,4.553-3.404,11.084,0.69,15.269l8.141,8.325c4.093,4.185,10.623,4.644,15.269,1.057l6.852-5.289
		c4.83,2.853,9.935,5.106,15.27,6.669l0.918,8.831c0.599,5.795,5.474,10.256,11.314,10.302l11.636,0.139
		c5.842,0.09,10.809-4.23,11.545-10.026l1.057-8.37c5.795-1.427,11.314-3.589,16.558-6.439l6.438,5.197
		c4.553,3.679,11.082,3.402,15.268-0.689l8.325-8.142c4.184-4.093,4.645-10.623,1.058-15.268l-4.923-6.395
		c3.037-5.059,5.383-10.439,6.992-16.096l7.634-0.782c5.796-0.598,10.255-5.473,10.303-11.313l0.138-11.636
		c0.092-5.842-4.23-10.809-10.026-11.544l-7.45-0.968c-1.426-5.61-3.541-11.036-6.301-16.096l4.645-5.702
		c3.68-4.554,3.404-11.084-0.688-15.27l-8.142-8.323c-4.095-4.187-10.625-4.646-15.268-1.059l-5.566,4.278
		c-5.243-3.175-10.854-5.611-16.738-7.269l-0.738-7.22c-0.598-5.796-5.472-10.256-11.313-10.302l-11.636-0.138
		c-5.841-0.092-10.809,4.231-11.544,10.025l-0.92,7.176c-6.07,1.563-11.911,3.955-17.337,7.081l-5.75-4.689
		c-4.554-3.681-11.084-3.403-15.27,0.69l-8.37,8.186c-4.187,4.092-4.646,10.623-1.058,15.27l4.922,6.346
		c-2.852,5.06-5.106,10.439-6.577,16.096L129.422,359.118z M204.525,345.965c16.695,0.184,30.079,13.935,29.896,30.631
		c-0.186,16.694-13.937,30.077-30.63,29.893c-16.695-0.184-30.079-13.935-29.895-30.63
		C174.079,359.164,187.831,345.781,204.525,345.965z"/>
</g>
</svg>
