<?xml version="1.0" encoding="utf-8"?>
<!-- Generator: Adobe Illustrator 13.0.0, SVG Export Plug-In . SVG Version: 6.00 Build 14948)  -->
<!DOCTYPE svg PUBLIC "-//W3C//DTD SVG 1.1//EN" "http://www.w3.org/Graphics/SVG/1.1/DTD/svg11.dtd">
<svg version="1.1" id="Capa_1" xmlns="http://www.w3.org/2000/svg" xmlns:xlink="http://www.w3.org/1999/xlink" x="0px" y="0px"
	 width="500px" height="500px" viewBox="0 0 500 500" enable-background="new 0 0 500 500" xml:space="preserve">
<g>
	<path id="XMLID_49_" fill="#FFFFFF" d="M298.289,409.516v12.506c0,9.951-7.31,18.23-16.822,19.639l-3.082,11.359
		c-1.673,6.166-7.221,10.48-13.649,10.48h-30.56c-6.429,0-11.977-4.314-13.65-10.48l-2.994-11.359
		c-9.599-1.498-16.908-9.688-16.908-19.727v-12.506c0-6.691,5.371-12.064,12.064-12.064h73.535
		C292.915,397.451,298.289,402.822,298.289,409.516z M354.915,240.958c0,28.447-11.273,54.25-29.591,73.183
		c-13.915,14.443-22.897,32.848-25.892,52.486c-1.321,8.455-8.631,14.707-17.261,14.707h-65.433c-8.543,0-15.94-6.164-17.174-14.619
		c-3.082-19.637-12.152-38.307-26.067-52.662c-17.965-18.67-29.149-44.033-29.413-71.951
		c-0.617-58.651,46.058-106.119,104.71-106.559C307.358,135.102,354.915,182.482,354.915,240.958z M261.389,177.109
		c0-6.517-5.284-11.889-11.889-11.889c-41.92,0-76.09,34.081-76.09,76.089c0,6.517,5.284,11.89,11.889,11.89
		c6.518,0,11.89-5.284,11.89-11.89c0-28.885,23.514-52.312,52.312-52.312C256.104,188.998,261.389,183.715,261.389,177.109z
		 M249.5,100.933c6.517,0,11.889-5.284,11.889-11.89V47.389c0-6.517-5.284-11.889-11.889-11.889c-6.605,0-11.89,5.284-11.89,11.889
		v41.655C237.61,95.649,242.982,100.933,249.5,100.933z M109.563,240.87c0-6.517-5.284-11.889-11.889-11.889H56.019
		c-6.517,0-11.889,5.283-11.889,11.889c0,6.517,5.284,11.888,11.889,11.888h41.655C104.278,252.758,109.563,247.475,109.563,240.87z
		 M442.981,228.981h-41.657c-6.517,0-11.889,5.283-11.889,11.889c0,6.517,5.285,11.888,11.889,11.888h41.657
		c6.515,0,11.889-5.283,11.889-11.888C454.87,234.353,449.585,228.981,442.981,228.981z M133.781,339.855l-29.503,29.502
		c-4.667,4.668-4.667,12.154,0,16.822c2.29,2.289,5.372,3.434,8.367,3.434c2.994,0,6.076-1.145,8.365-3.434l29.503-29.504
		c4.667-4.666,4.667-12.152,0-16.82C145.934,335.189,138.36,335.189,133.781,339.855z M356.852,145.406
		c2.994,0,6.077-1.145,8.367-3.434l29.502-29.502c4.666-4.668,4.666-12.153,0-16.821c-4.668-4.668-12.153-4.668-16.82,0
		l-29.502,29.502c-4.668,4.668-4.668,12.153,0,16.821C350.775,144.261,353.77,145.406,356.852,145.406z M133.781,141.883
		c2.289,2.29,5.371,3.435,8.365,3.435c2.995,0,6.077-1.145,8.367-3.435c4.667-4.667,4.667-12.153,0-16.82l-29.503-29.502
		c-4.667-4.667-12.152-4.667-16.82,0c-4.667,4.668-4.667,12.154,0,16.821L133.781,141.883z M365.219,339.855
		c-4.668-4.666-12.154-4.666-16.82,0c-4.668,4.668-4.668,12.154,0,16.82L377.9,386.18c2.288,2.289,5.371,3.434,8.365,3.434
		c2.995,0,6.076-1.145,8.366-3.434c4.668-4.668,4.668-12.154,0-16.822L365.219,339.855z"/>
</g>
</svg>
