<?xml version="1.0" encoding="utf-8"?>
<!-- Generator: Adobe Illustrator 13.0.0, SVG Export Plug-In . SVG Version: 6.00 Build 14948)  -->
<!DOCTYPE svg PUBLIC "-//W3C//DTD SVG 1.1//EN" "http://www.w3.org/Graphics/SVG/1.1/DTD/svg11.dtd">
<svg version="1.1" id="Capa_1" xmlns="http://www.w3.org/2000/svg" xmlns:xlink="http://www.w3.org/1999/xlink" x="0px" y="0px"
	 width="500px" height="500px" viewBox="0 0 500 500" enable-background="new 0 0 500 500" xml:space="preserve">
<path fill="#FFE600" d="M398.384,235.484h54.277c0,39.584-10.565,76.683-29.037,108.615l-0.021-0.02l-47.02-27.159
	C390.459,292.973,398.384,265.148,398.384,235.484z"/>
<path fill="#00C400" d="M376.586,316.921l47.02,27.159l0.021,0.02c-19.058,32.972-46.529,60.462-79.499,79.499l-0.02-0.039
	l-27.141-46.998C341.699,362.257,362.303,341.652,376.586,316.921z"/>
<path fill="#00ADFF" d="M344.125,423.599c-31.933,18.473-69.012,29.019-108.575,29.019V398.34c29.663,0,57.467-7.925,81.417-21.776
	l27.141,46.998L344.125,423.599z"/>
<path fill="#E30000" d="M423.604,126.949l-46.997,27.139c-14.283-24.732-34.906-45.355-59.641-59.659l27.141-46.999l0.02-0.039
	c32.969,19.058,60.46,46.549,79.539,79.519L423.604,126.949z"/>
<path d="M235.55,72.652c-29.663,0-57.487,7.924-81.436,21.776c-24.712,14.303-45.335,34.907-59.619,59.639l46.979,27.139
	c9.548-16.495,23.284-30.23,39.779-39.759c15.966-9.216,34.515-14.499,54.297-14.499c19.782,0,38.312,5.283,54.278,14.499
	l27.139-47.02C293.017,80.576,265.213,72.652,235.55,72.652z M126.975,235.484c0-19.781,5.283-38.33,14.498-54.277l-46.979-27.139
	c-13.873,23.95-21.797,51.754-21.797,81.417c0,29.664,7.925,57.468,21.798,81.437l46.999-27.119
	C132.258,273.836,126.975,255.268,126.975,235.484z M154.113,376.561c-24.712-14.305-45.334-34.908-59.618-59.64L47.476,344.08
	l-0.02,0.02c19.058,32.972,46.529,60.44,79.499,79.499l0.001-0.001c31.933,18.452,69.011,29.018,108.594,29.018v-54.277
	C205.887,398.338,178.063,390.413,154.113,376.561L154.113,376.561z"/>
<path fill="#FFA300" d="M423.664,126.91c18.451,31.933,28.997,69.012,28.997,108.574h-54.277c0-29.643-7.925-57.446-21.776-81.396
	l46.998-27.139L423.664,126.91z"/>
</svg>
