<?xml version="1.0" encoding="utf-8"?>
<!-- Generator: Adobe Illustrator 13.0.0, SVG Export Plug-In . SVG Version: 6.00 Build 14948)  -->
<!DOCTYPE svg PUBLIC "-//W3C//DTD SVG 1.1//EN" "http://www.w3.org/Graphics/SVG/1.1/DTD/svg11.dtd">
<svg version="1.1" id="Capa_1" xmlns="http://www.w3.org/2000/svg" xmlns:xlink="http://www.w3.org/1999/xlink" x="0px" y="0px"
	 width="400px" height="400px" viewBox="0 0 400 400" enable-background="new 0 0 400 400" xml:space="preserve">
<g>
	<path fill="#FF4045" d="M332.604,142.938c-5.164-1.216-10.354-2.627-15.532-4.099v-8.016c0-11.123-9.05-20.173-20.173-20.173
		h-68.442v-14.4c0-9.539-7.76-17.302-17.299-17.302h-22.313c-9.536,0-17.299,7.763-17.299,17.302v14.4h-68.445
		c-11.123,0-20.172,9.05-20.172,20.173v7.994c-5.188,1.475-10.391,2.89-15.568,4.112c-6.867,1.616-12.246,8.153-12.246,14.874v24.24
		c0,6.714,5.382,13.235,12.25,14.848c5.178,1.216,10.377,2.63,15.565,4.108v19.885c0,11.123,9.049,20.17,20.172,20.17h65.923
		l8.105-17.037c1.472-3.091,4.391-4.934,7.808-4.934h30.119c3.414,0,6.336,1.843,7.805,4.928l8.115,17.043h65.923
		c11.123,0,20.173-9.047,20.173-20.17v-19.885c5.178-1.475,10.368-2.88,15.532-4.096c6.771-1.594,12.282-8.256,12.282-14.861v-24.24
		C344.887,151.197,339.379,144.528,332.604,142.938z M177.306,96.253c0-6.358,5.174-11.536,11.536-11.536h22.313
		c6.364,0,11.536,5.178,11.536,11.536v14.4h-45.386V96.253z M68.682,191.277c-4.23-0.999-7.802-5.226-7.802-9.238v-24.24
		c0-4.025,3.571-8.269,7.805-9.267c4.749-1.12,9.501-2.403,14.244-3.738v50.214C78.186,193.677,73.434,192.391,68.682,191.277z
		 M311.309,220.88c0,7.942-6.464,14.407-14.409,14.407h-62.278l-6.561-13.758c-2.447-5.146-7.309-8.214-13.004-8.214h-30.119
		c-5.693,0-10.56,3.068-13.011,8.218l-6.544,13.753h-62.282c-7.945,0-14.406-6.464-14.406-14.406v-90.058
		c0-7.942,6.461-14.406,14.406-14.406h193.802c7.945,0,14.409,6.467,14.409,14.406v90.058H311.309z M339.126,182.042
		c0,4.013-3.59,8.25-7.833,9.248c-4.739,1.117-9.485,2.397-14.218,3.725v-50.192c4.732,1.332,9.479,2.608,14.218,3.725
		c4.243,1.001,7.833,5.235,7.833,9.254V182.042z"/>
	<path fill="#FF4045" d="M280.694,128.672H119.302c-9.529,0-17.277,7.526-17.277,16.774v11.325h5.763v-11.325
		c0-6.07,5.165-11.008,11.517-11.008h161.392c6.355,0,11.523,4.938,11.523,11.008v11.325h5.767v-11.325
		C297.98,136.198,290.225,128.672,280.694,128.672z"/>
</g>
</svg>
