<?xml version="1.0" encoding="utf-8"?>
<!-- Generator: Adobe Illustrator 13.0.0, SVG Export Plug-In . SVG Version: 6.00 Build 14948)  -->
<!DOCTYPE svg PUBLIC "-//W3C//DTD SVG 1.1//EN" "http://www.w3.org/Graphics/SVG/1.1/DTD/svg11.dtd">
<svg version="1.1" id="Capa_1" xmlns="http://www.w3.org/2000/svg" xmlns:xlink="http://www.w3.org/1999/xlink" x="0px" y="0px"
	 width="400px" height="400px" viewBox="0 0 400 400" enable-background="new 0 0 400 400" xml:space="preserve">
<g>
	<g>
		<path fill="#30B845" d="M332.103,182.437c-5.163-1.216-10.354-2.627-15.531-4.099v-8.016c0-11.123-9.05-20.173-20.174-20.173
			h-68.441v-14.4c0-9.539-7.76-17.302-17.299-17.302h-22.313c-9.536,0-17.3,7.763-17.3,17.302v14.4h-68.444
			c-11.123,0-20.172,9.05-20.172,20.173v7.994c-5.188,1.475-10.392,2.89-15.568,4.112c-6.867,1.616-12.246,8.153-12.246,14.874
			v24.24c0,6.715,5.382,13.235,12.25,14.849c5.178,1.216,10.377,2.63,15.565,4.108v19.885c0,11.123,9.049,20.17,20.172,20.17h65.923
			l8.104-17.037c1.473-3.092,4.392-4.934,7.809-4.934h30.118c3.414,0,6.336,1.842,7.805,4.928l8.115,17.043h65.924
			c11.123,0,20.173-9.047,20.173-20.17v-19.885c5.178-1.476,10.368-2.881,15.532-4.097c6.771-1.594,12.281-8.256,12.281-14.86V197.3
			C344.386,190.696,338.878,184.026,332.103,182.437z M176.806,135.751c0-6.358,5.174-11.536,11.535-11.536h22.313
			c6.365,0,11.537,5.178,11.537,11.536v14.4h-45.386L176.806,135.751L176.806,135.751z M68.182,230.775
			c-4.23-0.999-7.803-5.227-7.803-9.238v-24.24c0-4.025,3.571-8.269,7.806-9.267c4.749-1.12,9.501-2.403,14.244-3.738v50.213
			C77.686,233.176,72.934,231.89,68.182,230.775z M310.808,260.379c0,7.941-6.464,14.406-14.408,14.406h-62.278l-6.562-13.758
			c-2.447-5.146-7.309-8.215-13.004-8.215h-30.118c-5.693,0-10.561,3.068-13.012,8.219l-6.544,13.754h-62.281
			c-7.945,0-14.406-6.465-14.406-14.406v-90.058c0-7.942,6.461-14.406,14.406-14.406h193.801c7.945,0,14.409,6.467,14.409,14.406
			v90.058H310.808z M338.625,221.541c0,4.013-3.59,8.25-7.833,9.248c-4.739,1.117-9.485,2.396-14.218,3.725v-50.192
			c4.731,1.332,9.479,2.608,14.218,3.725c4.243,1.001,7.833,5.235,7.833,9.254V221.541z"/>
		<path fill="#30B845" d="M280.192,168.17H118.801c-9.528,0-17.276,7.526-17.276,16.774v11.325h5.763v-11.325
			c0-6.07,5.165-11.008,11.518-11.008h161.392c6.354,0,11.523,4.938,11.523,11.008v11.325h5.766v-11.325
			C297.479,175.697,289.724,168.17,280.192,168.17z"/>
	</g>
	<path fill="none" stroke="#30B845" stroke-width="15" d="M199.5,379C100.363,379,20,298.635,20,199.5
		c0-32.74,8.766-63.434,24.078-89.86"/>
	<path fill="none" stroke="#30B845" stroke-width="15" d="M355.438,110.534C370.432,136.758,379,167.128,379,199.5
		c0,99.135-80.364,179.5-179.5,179.5"/>
</g>
</svg>
