<?xml version="1.0" encoding="utf-8"?>
<!-- Generator: Adobe Illustrator 13.0.0, SVG Export Plug-In . SVG Version: 6.00 Build 14948)  -->
<!DOCTYPE svg PUBLIC "-//W3C//DTD SVG 1.1//EN" "http://www.w3.org/Graphics/SVG/1.1/DTD/svg11.dtd">
<svg version="1.1" id="Capa_1" xmlns="http://www.w3.org/2000/svg" xmlns:xlink="http://www.w3.org/1999/xlink" x="0px" y="0px"
	 width="400px" height="400px" viewBox="0 0 400 400" enable-background="new 0 0 400 400" xml:space="preserve">
<g>
	<path fill="none" stroke="#006EE0" stroke-width="15" d="M354.922,289.36C323.869,342.952,265.895,379,199.5,379
		c-66.764,0-125.015-36.449-155.938-90.534"/>
	<path fill="none" stroke="#006EE0" stroke-width="15" d="M43.563,288.466C28.569,262.242,20,231.872,20,199.5
		C20,100.365,100.365,20,199.5,20C298.637,20,379,100.365,379,199.5c0,32.74-8.766,63.434-24.078,89.86"/>
</g>
<g>
	<path fill="#006EE0" d="M332.104,182.436c-5.164-1.216-10.354-2.627-15.531-4.099v-8.016c0-11.123-9.051-20.174-20.174-20.174
		h-68.441v-14.399c0-9.539-7.76-17.302-17.299-17.302h-22.314c-9.536,0-17.299,7.763-17.299,17.302v14.399H102.6
		c-11.123,0-20.172,9.051-20.172,20.174v7.993c-5.188,1.476-10.391,2.891-15.568,4.112c-6.866,1.616-12.246,8.153-12.246,14.874
		v24.24c0,6.715,5.383,13.234,12.25,14.848c5.179,1.217,10.378,2.631,15.565,4.109v19.885c0,11.123,9.049,20.17,20.172,20.17h65.923
		l8.105-17.037c1.472-3.092,4.391-4.934,7.808-4.934h30.12c3.414,0,6.336,1.842,7.805,4.928l8.115,17.043H296.4
		c11.123,0,20.172-9.047,20.172-20.17v-19.885c5.178-1.477,10.369-2.881,15.533-4.098c6.77-1.594,12.281-8.256,12.281-14.859V197.3
		C344.387,190.696,338.879,184.026,332.104,182.436z M176.805,135.751c0-6.358,5.174-11.536,11.536-11.536h22.313
		c6.365,0,11.537,5.178,11.537,11.536v14.399h-45.387L176.805,135.751L176.805,135.751z M68.181,230.775
		c-4.229-1-7.802-5.227-7.802-9.238v-24.24c0-4.025,3.571-8.27,7.805-9.267c4.749-1.12,9.501-2.403,14.244-3.738v50.213
		C77.685,233.176,72.933,231.889,68.181,230.775z M310.809,260.379c0,7.941-6.465,14.406-14.408,14.406h-62.279l-6.561-13.758
		c-2.447-5.146-7.309-8.215-13.004-8.215h-30.12c-5.692,0-10.56,3.068-13.011,8.219l-6.544,13.754H102.6
		c-7.945,0-14.406-6.465-14.406-14.406v-90.058c0-7.942,6.461-14.406,14.406-14.406h193.802c7.945,0,14.408,6.467,14.408,14.406
		v90.058H310.809z M338.625,221.541c0,4.012-3.59,8.25-7.832,9.248c-4.74,1.117-9.486,2.396-14.219,3.725v-50.192
		c4.732,1.332,9.479,2.607,14.219,3.725c4.242,1.001,7.832,5.235,7.832,9.254V221.541z"/>
	<path fill="#006EE0" d="M280.193,168.17H118.801c-9.529,0-17.277,7.526-17.277,16.773v11.325h5.764v-11.325
		c0-6.069,5.165-11.008,11.517-11.008h161.393c6.354,0,11.523,4.938,11.523,11.008v11.325h5.766v-11.325
		C297.48,175.697,289.725,168.17,280.193,168.17z"/>
</g>
</svg>
